<svg xmlns="http://www.w3.org/2000/svg" viewBox="0 0 1200 900" fill="none" role="img" aria-label="Aperçu d'un site multi-pages">
  <!-- Plusieurs pages en éventail -->
  <g filter="url(#s2)">
    <rect x="180" y="240" width="560" height="440" rx="20" fill="#ffffff" opacity="0.55" transform="rotate(-6 460 460)"/>
  </g>
  <g filter="url(#s2)">
    <rect x="320" y="200" width="560" height="460" rx="20" fill="#ffffff" opacity="0.8" transform="rotate(3 600 430)"/>
  </g>
  <g filter="url(#s2)">
    <rect x="380" y="180" width="560" height="500" rx="22" fill="#ffffff"/>
  </g>
  <!-- Page de devant -->
  <rect x="380" y="180" width="560" height="56" rx="22" fill="#F2F4FF"/>
  <rect x="380" y="214" width="560" height="22" fill="#F2F4FF"/>
  <circle cx="414" cy="208" r="7" fill="#060918" opacity="0.15"/>
  <circle cx="438" cy="208" r="7" fill="#060918" opacity="0.15"/>
  <circle cx="462" cy="208" r="7" fill="#060918" opacity="0.15"/>
  <rect x="420" y="284" width="260" height="24" rx="8" fill="#060918"/>
  <rect x="420" y="324" width="180" height="24" rx="8" fill="#060918" opacity="0.5"/>
  <rect x="420" y="384" width="480" height="12" rx="6" fill="#060918" opacity="0.18"/>
  <rect x="420" y="410" width="420" height="12" rx="6" fill="#060918" opacity="0.18"/>
  <rect x="420" y="456" width="130" height="40" rx="20" fill="#3B5BFF"/>
  <rect x="420" y="540" width="240" height="100" rx="14" fill="#EBEEFF"/>
  <rect x="684" y="540" width="216" height="100" rx="14" fill="#3B5BFF" opacity="0.12"/>
  <defs>
    <filter id="s2" x="120" y="120" width="960" height="660" filterUnits="userSpaceOnUse">
      <feDropShadow dx="0" dy="16" stdDeviation="26" flood-color="#060918" flood-opacity="0.12"/>
    </filter>
  </defs>
</svg>
