<svg xmlns="http://www.w3.org/2000/svg" viewBox="0 0 1200 900" fill="none" role="img" aria-label="Tableau de bord de maintenance et suivi">
  <g filter="url(#s4)">
    <rect x="160" y="160" width="880" height="580" rx="24" fill="#ffffff"/>
  </g>
  <!-- Sidebar -->
  <rect x="160" y="160" width="200" height="580" rx="24" fill="#060918"/>
  <rect x="160" y="160" width="40" height="580" fill="#060918"/>
  <rect x="192" y="208" width="120" height="16" rx="8" fill="#ffffff" opacity="0.9"/>
  <rect x="192" y="280" width="136" height="12" rx="6" fill="#3B5BFF"/>
  <rect x="192" y="316" width="110" height="12" rx="6" fill="#ffffff" opacity="0.3"/>
  <rect x="192" y="352" width="120" height="12" rx="6" fill="#ffffff" opacity="0.3"/>
  <rect x="192" y="388" width="96" height="12" rx="6" fill="#ffffff" opacity="0.3"/>
  <!-- Statut -->
  <circle cx="208" cy="700" r="8" fill="#3B5BFF"/>
  <rect x="228" y="692" width="100" height="14" rx="7" fill="#ffffff" opacity="0.5"/>
  <!-- KPI cards -->
  <rect x="400" y="208" width="180" height="110" rx="16" fill="#EBEEFF"/>
  <rect x="610" y="208" width="180" height="110" rx="16" fill="#EBEEFF"/>
  <rect x="820" y="208" width="180" height="110" rx="16" fill="#3B5BFF"/>
  <rect x="424" y="236" width="80" height="12" rx="6" fill="#060918" opacity="0.3"/>
  <rect x="424" y="264" width="120" height="26" rx="8" fill="#060918"/>
  <rect x="634" y="236" width="80" height="12" rx="6" fill="#060918" opacity="0.3"/>
  <rect x="634" y="264" width="110" height="26" rx="8" fill="#060918"/>
  <rect x="844" y="236" width="80" height="12" rx="6" fill="#ffffff" opacity="0.5"/>
  <rect x="844" y="264" width="120" height="26" rx="8" fill="#ffffff"/>
  <!-- Graphe -->
  <rect x="400" y="356" width="600" height="340" rx="18" fill="#F2F4FF"/>
  <rect x="424" y="384" width="160" height="14" rx="7" fill="#060918" opacity="0.4"/>
  <g>
    <rect x="448" y="560" width="48" height="100" rx="8" fill="#3B5BFF" opacity="0.35"/>
    <rect x="528" y="512" width="48" height="148" rx="8" fill="#3B5BFF" opacity="0.45"/>
    <rect x="608" y="540" width="48" height="120" rx="8" fill="#3B5BFF" opacity="0.4"/>
    <rect x="688" y="476" width="48" height="184" rx="8" fill="#3B5BFF" opacity="0.6"/>
    <rect x="768" y="500" width="48" height="160" rx="8" fill="#3B5BFF" opacity="0.5"/>
    <rect x="848" y="440" width="48" height="220" rx="8" fill="#3B5BFF"/>
    <rect x="928" y="492" width="48" height="168" rx="8" fill="#3B5BFF" opacity="0.55"/>
  </g>
  <defs>
    <filter id="s4" x="120" y="130" width="960" height="660" filterUnits="userSpaceOnUse">
      <feDropShadow dx="0" dy="20" stdDeviation="30" flood-color="#060918" flood-opacity="0.12"/>
    </filter>
  </defs>
</svg>
