<svg xmlns="http://www.w3.org/2000/svg" viewBox="0 0 1200 900" fill="none" role="img" aria-label="Aperçu d'un site mono-page">
  <!-- Fenêtre navigateur unique -->
  <g filter="url(#s1)">
    <rect x="200" y="140" width="800" height="620" rx="24" fill="#ffffff"/>
  </g>
  <rect x="200" y="140" width="800" height="64" rx="24" fill="#F2F4FF"/>
  <rect x="200" y="180" width="800" height="24" fill="#F2F4FF"/>
  <circle cx="240" cy="172" r="8" fill="#060918" opacity="0.15"/>
  <circle cx="268" cy="172" r="8" fill="#060918" opacity="0.15"/>
  <circle cx="296" cy="172" r="8" fill="#060918" opacity="0.15"/>
  <rect x="420" y="160" width="360" height="24" rx="12" fill="#060918" opacity="0.06"/>
  <!-- Contenu -->
  <rect x="248" y="268" width="420" height="30" rx="8" fill="#060918"/>
  <rect x="248" y="316" width="320" height="30" rx="8" fill="#060918" opacity="0.5"/>
  <rect x="248" y="384" width="360" height="14" rx="7" fill="#060918" opacity="0.2"/>
  <rect x="248" y="412" width="300" height="14" rx="7" fill="#060918" opacity="0.2"/>
  <rect x="248" y="464" width="150" height="44" rx="22" fill="#3B5BFF"/>
  <rect x="720" y="268" width="232" height="240" rx="18" fill="#3B5BFF" opacity="0.12"/>
  <circle cx="836" cy="388" r="44" fill="#3B5BFF" opacity="0.35"/>
  <rect x="248" y="568" width="220" height="120" rx="16" fill="#EBEEFF"/>
  <rect x="490" y="568" width="220" height="120" rx="16" fill="#EBEEFF"/>
  <rect x="732" y="568" width="220" height="120" rx="16" fill="#EBEEFF"/>
  <defs>
    <filter id="s1" x="160" y="110" width="880" height="700" filterUnits="userSpaceOnUse">
      <feDropShadow dx="0" dy="20" stdDeviation="30" flood-color="#060918" flood-opacity="0.12"/>
    </filter>
  </defs>
</svg>
