<svg xmlns="http://www.w3.org/2000/svg" viewBox="0 0 1600 1000" fill="none" role="img" aria-label="Aperçu d'un site réalisé par MLD">
  <!-- Fond -->
  <rect width="1600" height="1000" fill="#EBEEFF"/>

  <!-- Barre de navigation -->
  <rect x="80" y="64" width="120" height="28" rx="14" fill="#060918"/>
  <rect x="1140" y="66" width="80" height="24" rx="12" fill="#060918" opacity="0.12"/>
  <rect x="1244" y="66" width="80" height="24" rx="12" fill="#060918" opacity="0.12"/>
  <rect x="1360" y="60" width="160" height="36" rx="18" fill="#3B5BFF"/>

  <!-- Titre hero -->
  <rect x="80" y="240" width="760" height="44" rx="10" fill="#060918"/>
  <rect x="80" y="312" width="640" height="44" rx="10" fill="#060918"/>
  <rect x="80" y="384" width="420" height="44" rx="10" fill="#060918" opacity="0.5"/>

  <!-- Sous-texte -->
  <rect x="80" y="470" width="560" height="18" rx="9" fill="#060918" opacity="0.25"/>
  <rect x="80" y="504" width="500" height="18" rx="9" fill="#060918" opacity="0.25"/>

  <!-- Boutons CTA -->
  <rect x="80" y="566" width="190" height="56" rx="28" fill="#3B5BFF"/>
  <rect x="290" y="566" width="190" height="56" rx="28" fill="#060918" opacity="0.08"/>

  <!-- Visuel à droite -->
  <rect x="900" y="240" width="620" height="420" rx="24" fill="#3B5BFF" opacity="0.12"/>
  <rect x="952" y="300" width="320" height="22" rx="11" fill="#3B5BFF" opacity="0.45"/>
  <rect x="952" y="346" width="220" height="22" rx="11" fill="#060918" opacity="0.18"/>
  <circle cx="1410" cy="560" r="60" fill="#3B5BFF" opacity="0.35"/>

  <!-- Rangée de cartes -->
  <rect x="80" y="752" width="440" height="170" rx="20" fill="#ffffff"/>
  <rect x="560" y="752" width="440" height="170" rx="20" fill="#ffffff"/>
  <rect x="1040" y="752" width="440" height="170" rx="20" fill="#ffffff"/>
  <rect x="112" y="788" width="56" height="56" rx="14" fill="#3B5BFF" opacity="0.2"/>
  <rect x="592" y="788" width="56" height="56" rx="14" fill="#3B5BFF" opacity="0.2"/>
  <rect x="1072" y="788" width="56" height="56" rx="14" fill="#3B5BFF" opacity="0.2"/>
  <rect x="112" y="868" width="280" height="16" rx="8" fill="#060918" opacity="0.2"/>
  <rect x="592" y="868" width="280" height="16" rx="8" fill="#060918" opacity="0.2"/>
  <rect x="1072" y="868" width="280" height="16" rx="8" fill="#060918" opacity="0.2"/>
</svg>
